<?xml version="1.0" standalone="no"?>
<!DOCTYPE svg PUBLIC "-//W3C//DTD SVG 20010904//EN"
 "http://www.w3.org/TR/2001/REC-SVG-20010904/DTD/svg10.dtd">
<svg version="1.0" xmlns="http://www.w3.org/2000/svg"
 width="290.000000pt" height="290.000000pt" viewBox="0 0 290.000000 290.000000"
 preserveAspectRatio="xMidYMid meet">
<metadata>
Created by potrace 1.11, written by Peter Selinger 2001-2013
</metadata>
<g transform="translate(0.000000,290.000000) scale(0.100000,-0.100000)"
fill="#000000" stroke="none">
<path d="M100 2500 l0 -150 150 0 149 0 0 -985 c0 -1092 -4 -1029 65 -1078
l31 -22 1148 -3 1147 -2 0 150 0 150 -448 0 -448 0 0 1043 0 1042 -155 3 -154
2 0 -1045 0 -1046 -145 3 -145 3 0 1043 0 1042 -150 -2 -149 -3 0 -1042 0
-1043 -148 0 c-111 0 -148 3 -149 13 0 6 0 477 -1 1045 l0 1032 -299 0 -299 0
0 -150z"/>
</g>
</svg>
